# xmcd
#
# Track frame offsets:
# 225
# 11373
# 28478
# 44274
# 57699
# 71945
# 88575
# 103642
# 114731
# 129066
# 143050
# 156281
# 172889
# 178046
#
# Disc length: 2746 seconds
#
#
# Revision: 0
# Processed by: cddbd v1.4PL0 Copyright (c) Steve Scherf et al.
# Submitted via: FreeRIP 2.40 
#
DISCID=c20ab70e
DTITLE=Bar J Wrangler - Home for Christmas
DYEAR=1900
DGENRE=Country
TTITLE0=Jingle Bells
TTITLE1=Unto You This Night
TTITLE2=White Christmas
TTITLE3=That's Why There's A Christmas
TTITLE4=What Child Is This?
TTITLE5=Grandma Got Ran Over By A Reindeer
TTITLE6=Rose Among The Thorns
TTITLE7=Winter Wonderland
TTITLE8=I'll Be Home For Christmas
TTITLE9=Mary, Did You Know?
TTITLE10=O Holy Night
TTITLE11=New Star Shining
TTITLE12=God Rest Ye Merry, Gentlemen
TTITLE13=Silent Night (with poem)
EXTD=
EXTT0=
EXTT1=
EXTT2=
EXTT3=
EXTT4=
EXTT5=
EXTT6=
EXTT7=
EXTT8=
EXTT9=
EXTT10=
EXTT11=
EXTT12=
EXTT13=
PLAYORDER=
